<svg width="52" height="41" viewBox="0 0 52 41" fill="none" xmlns="http://www.w3.org/2000/svg">
<path d="M10.2011 6.83333H6.80076V10.25H10.2011V6.83333ZM44.2049 37.5833H47.6053V34.1667H44.2049V37.5833ZM3.40038 30.75V34.1667H6.80076V30.75H3.40038ZM13.6015 34.1667H6.80076V37.5833H10.2011V41H44.2049V37.5833H13.6015V34.1667ZM6.80076 10.25H3.40038V13.6667H6.80076V10.25ZM47.6053 17.0833V13.6667H44.2049V17.0833H47.6053ZM13.6015 3.41667H10.2011V6.83333H13.6015V3.41667ZM0 13.6667V30.75H3.40038V13.6667H0ZM44.2049 13.6667V10.25H40.8046V13.6667H44.2049ZM17.0019 10.25H30.6034V6.83333H20.4023V0H13.6015V3.41667H17.0019V10.25ZM37.4042 10.25H40.8046V0H34.0038V3.41667H37.4042V10.25ZM37.4042 17.0833H34.0038V20.5H37.4042V17.0833ZM34.0038 3.41667H30.6034V6.83333H34.0038V3.41667ZM23.8027 17.0833H20.4023V20.5H23.8027V17.0833ZM30.6034 27.3333H34.0038V30.75H23.8027V34.1667H40.8046V30.75H37.4042V27.3333H40.8046V23.9167H30.6034V27.3333ZM47.6053 34.1667H51.0057V17.0833H47.6053V34.1667ZM20.4023 27.3333V30.75H23.8027V27.3333H20.4023Z" fill="white"/>
</svg>
